<mxfile host="65bd71144e">
    <diagram id="HIP3nbAZw_EuaXWnEj3U" name="Page-1">
        <mxGraphModel dx="766" dy="579" grid="1" gridSize="10" guides="1" tooltips="1" connect="1" arrows="1" fold="1" page="1" pageScale="1" pageWidth="850" pageHeight="1100" math="0" shadow="0">
            <root>
                <mxCell id="0"/>
                <mxCell id="1" parent="0"/>
                <mxCell id="7" value="http://ics2o.mths.ca" style="swimlane;whiteSpace=wrap;html=1;" parent="1" vertex="1">
                    <mxGeometry x="45" y="50" width="760" height="480" as="geometry"/>
                </mxCell>
                <mxCell id="8" value="&lt;font style=&quot;font-size: 20px;&quot;&gt;API &amp;amp; JSON&lt;/font&gt;" style="text;html=1;align=center;verticalAlign=middle;resizable=0;points=[];autosize=1;strokeColor=none;fillColor=none;" vertex="1" parent="7">
                    <mxGeometry x="340" y="50" width="130" height="40" as="geometry"/>
                </mxCell>
                <mxCell id="10" value="WEATHER" style="rounded=1;whiteSpace=wrap;html=1;" vertex="1" parent="7">
                    <mxGeometry x="50" y="163" width="110" height="47" as="geometry"/>
                </mxCell>
                <mxCell id="11" value="&lt;font style=&quot;font-size: 20px;&quot;&gt;&lt;font style=&quot;color: rgb(0, 0, 0);&quot;&gt;XX&lt;/font&gt;&lt;span style=&quot;&quot; id=&quot;docs-internal-guid-944986f6-7fff-81ea-ef6d-6397bc58c430&quot;&gt;&lt;span style=&quot;font-family: Consolas, sans-serif; background-color: transparent; font-variant-numeric: normal; font-variant-east-asian: normal; font-variant-alternates: normal; font-variant-position: normal; font-variant-emoji: normal; vertical-align: baseline; white-space: pre-wrap; color: rgb(206, 145, 120);&quot;&gt;&lt;font style=&quot;color: rgb(0, 0, 0);&quot;&gt;Â°&lt;/font&gt;&lt;/span&gt;&lt;span style=&quot;color: light-dark(rgb(0, 0, 0), rgb(237, 237, 237)); font-family: Consolas, sans-serif; background-color: transparent; font-variant-numeric: normal; font-variant-east-asian: normal; font-variant-alternates: normal; font-variant-position: normal; font-variant-emoji: normal; vertical-align: baseline; white-space: pre-wrap;&quot;&gt;&lt;font style=&quot;color: rgb(0, 0, 0);&quot;&gt;C&lt;/font&gt;&lt;/span&gt;&lt;/span&gt;&lt;font style=&quot;color: rgb(0, 0, 0);&quot;&gt;&amp;nbsp;&lt;/font&gt;&lt;/font&gt;" style="text;html=1;align=center;verticalAlign=middle;resizable=0;points=[];autosize=1;strokeColor=none;fillColor=none;" vertex="1" parent="7">
                    <mxGeometry x="50" y="230" width="80" height="40" as="geometry"/>
                </mxCell>
                <mxCell id="9" value="&lt;font style=&quot;font-size: 20px;&quot;&gt;Weather&lt;/font&gt;" style="text;html=1;align=center;verticalAlign=middle;resizable=0;points=[];autosize=1;strokeColor=none;fillColor=none;" vertex="1" parent="7">
                    <mxGeometry x="50" y="113" width="100" height="40" as="geometry"/>
                </mxCell>
                <mxCell id="12" value="" style="shape=image;verticalLabelPosition=bottom;labelBackgroundColor=default;verticalAlign=top;aspect=fixed;imageAspect=0;image=data:image/png,iVBORw0KGgoAAAANSUhEUgAAALMAAACuCAIAAADyPqvhAAAAAXNSR0IArs4c6QAAIABJREFUeJztfXd8FNe59pypOzvbd7XqvTckBAIjiujNdFyxMe52ynVuyv3ul3xJbu7NTXJLmpM4BXcbYzDVmN4RVaCKUO9d2lVZbd+p3x+DViuhsiskgbGeH3+g2SlnZp55z3veCmihCJrGNO4B/KAHMI2HFOgov7EsV1hQ3tDQZrc7IUGYwlFNYyIBAKAoSURkSEpqDEHgXh41DDNYlmtrM+z65OihA2dZjkMQBAAw0aOdxpRCEASO5SiK3LRl2fPb1/np1QiCjH4IGKJn2GyOE8cuf7brGEHgK1bNy8pKD48IJEnJNDm+vhAEwW53NtS3Xr1SePbMDYZhd7y0ccXKeRRFjnLUIGbQNLN717Hjxy4vWjz7mWdW6/zUUzLyaUwdDJ3dn+8+ce1q4cbNSzdvWU6SxEh7DppNcm+UHDp47ulnV2/ctHR0Qk3jawq9v/bV17cqVfID+85GRgbPy0ofac9Ba5P/+vV7cXHhm6Zp8UiDosgtW5fFxYfv/Pv+UXYbYMaRLy8YDT3f+8Hz0mlaPOpQKGSbtyyrq2u5devOSPsMMGPv5yejY8KCgvRTNbxpPEjMzEiMjAg+tP/cSDsMMKO7y7Rx02IYnrZ9fSOAYWhySvTNmyUj7TDAA4fDmZAYNVUDm8aDh59e095mHOnXAWbwvCCReGsgm8YjABRFGIYd6dfpuWMaw2OaGdMYHtPMmMbwGM3XOo3RQdNMcVFlWWmtn586a0G6SqV40COaSEwzY5ygaeb40ct/fntXZUWDSiXf/uKGN7/9tFIpe9DjmjBMzybjRHt7197PT9y4fttg6Kmubtqz+0RBXtmDHtREYlpmQDwv8DwPAIBh2PtYA4fdYTB0i6s+QRB6evq6unp9vbQgCGJkjc+Dnnx805nhcLjKSmtra5rUasWM9Hg/P7WXVmBBgHh+IM5N4AXPP7053Ol0dXZ2W8w2vb9Gq1Wh6BihNFOMbzQzaJo5d/bGX97eXV5ep1Yrtj654rU3nggI0E3BpR12x8mTV/ftPW3o7E5Minrplc3pMxMQ5CGa3L/RzOjuNh05dOHqlUKXi+5o79qz+8TMjMTVaxZMwedbXd3093f2Xr1SyDBsQUEZiiKRkcEarXKyr+s9HiKSTj0cdpfB2M2ynDjlt7Z0XjiXazFbJ/u6Tqfrck5+UWGFqKbYbc6SkhqL1TbZ1/UJ32hmqDWK2NhwnMDEP+1255UrhQ0N7ZN93fa2rqNHLlksdvFPBIGDAnWkRDLZ1/UJ32hmKJWyhdmz9XqNe0t1ZWPu9WJRikwSeF64mXu7pKSa47j+YcgXZs9WquSTd9Fx4BvNDBiGs+anpaUnuNcjNpvjwIGzXUYv1p9g0GoTAG/XniaT+dhXOT3dJveBCYmRi7JnEf2i6yHBN5oZEARptaqtTyx35+cIgpB7vfjy5YIxl6AEjiuUMnE1AQCgZFK5YmwDqCAIRYWVZ89c5zhe3IJh6MpVWdExoRNxNxOJbzozAABLls5JTYt1b3E66Y8/PGy12kc/0D9Au2zZ3MAgPYIgFEUuXJSRlh4/5uVomvls19GuLpN7S2CQ35Ynl2PYQ7dIfOgGNPXQ6lRPP726uLDS5aLFLbeLqwrySxcvmTPKURRFvvTK5uAQ/yuX8yMigp96ZpW/F4aQO7erL5zLdf+JIPCz29aGhwdPxH1MMB5BZvA8LwgQDHs782MYunhpZkJi5O3iKtFc7XS4DIaxVQ2ZXLrlieVbnlju/diKiyvN5oHVaVR0yPqNi73XMHieFwQBhuEpMKg/Uszgeb6zs7uyvMHhdCYkRIWG+qPeSemo6NDH1y1qauow9ZphGI6Lj0hKjp6MEYZHBKnVCnOfFYIgKUWuWbMwNjbcm9fM83yXsbe8rM5qtcclRISHB+H45Gqsjw4zBAFqamz/89ufnT19w+lypabGff+HL8ydl4qiY9+jVCrZvmMDgEF+XplSKXv+hfXx8eGTMcg5c2e8/uYTez8/6bC7Zs9Jfua5NQolNeZRPC/U17fu/Pu+Uyeu2u3OlNTYH/7LjnlZaZMa6P/oMINhmKtXiw4eONfa0glBUGuLweFw/uwXb2bOSR3THwEAiIoO+Zd/fdlqsRMEJpNTk+TCkMul3/nutjVrFzocruAQf71e483bbW8z/u0vez/56Ehfn0UQBKOhJzYuPDk5WqWexFihR4cZHMf19vQ5HS7xT5pmLl3Mw3/z/o9/+vqsWYljFwUAQCqVSKXDGyJ5XuA4jmVZm81p7rPabA6bzeFy0RzLcRwHIwiOoSiGSiS4XE4plDKKkmAYhiIIfA/DpJQkJTV22KvcC5EHf/z9Jx++f8hiuaugsCzX02WyO1yqycxIf3SYgWFYbFx4cIi+t9fM87xIjpPHr0AQ9OP/99qs2UljkuNeCIJgszoMhp6Wls76upbmpvampvaW5k6jsbfL2Gux2mkXTdMshiFSKSmREAqlLCBAGxziHxTkFxoWGBUVEhLq7++vVWuU4xBCPM83NbW/86c9H7w3QAsx9zA5NUalnFyb6aPDDBRF5sxNfemVze/86fPa2mZxlcFx/NnTN2ia/enP35g1OxnHvbpfQRBcTtpg6Ckrq8u7eacgv7ympqm7q9dssdEuRrin/JDLxbtcDARB7e3Gyop6CIIQBJHLpWqNIjQ0ICU1dtbs5LT0+PCIIJlM6iVFOI6vr2v589ufffrxV57GFUpGbn1yxYaNS6TU5PpZHh1mQBCkUsmf3bYWRZHf/Oq99jaj+ApdLvrihVu0i/m3//jWY/PSxvSwO52uhrrWc+dyT5+6Vl3V2NnR7XC4OI67lxCjgOM4k8liMlmaGttv3rxzYP8ZsSTB2nUL09ITVGO5SARBaGxs+/Pbn+3ZfcKTFgoF9cKLG9/65+dCwwK9H8z48EgxAwCg0Sq3Pb8Ow9Cf/uTP3V0m8XUyNHPtatGf394dFKSPig4Z6XCO4+vqWvbtOfnl4QvVVY12h5Pvt2GPGxzHcw6X0+EydPYUFlQcOnhu6bI5Tz29KmtBxigZgRazbe/uk/v2njKZzO6NMpn0pVc2/+uPX9HqVNP2jPFALpc+/8J6AMCvfvluS3OHqHOwLFtRXldf3zosM3ieNxh6Thy7/OH7h4qLKh39aqwnYADBAEJQIMUBiUM4BmMIhMAAARAPQRwnsDxEM4KDFhw0RLM8z0OevhdBEFwuuqG+9aMPvjxz+vqWrct3vLQxNi582JJqJpOlsKDMZLKIcgoAoFBQ23ds+OcfvjBlhZAeQWZAEITj2BNPrqRp5k9//KyutpnjeAAguZySy6T37mw22/LzSnd98tXxo5fd2qsbAIKkEqCRwSE6JEKPhuvR6EAkWIf4qxCNDJbggMAghoPsTt7qFIx9fHMX12zk6jvZ+g62uZszmnizfZB7juf55qaOnf/Yn59f9tz2datXzw8K1g+RATiOqTUKFEXFeACtVvnMtrXffWtbYKDfJD61wXg0mSGarp94ciUEgV2fflVf16rXq7c8sTwmLsxzH/ElHTxwdvenx8rKaoek/yIwpJHDyWFYZhyeFonFBaOhOkQrR4Y3qyoH6ZUmK9/azTUYuOJ6Jr+aLm5gWro4mhlQVRx257UrhbU1zYX55Tte2piWHu9p01RrFOvWL25sbC8rrZXJpJs2L3351S0RkUEwPHVR5o8sM0Sd45lta9LS4lpbDRqNMjUtTu1hGmIYtuR21bv/OHDs6KXOjm5PBRMGkF6FZCXia2ZJMmPxMD1CSQCO+vBWVDJYJYMTQrFFKUS3mS9poM8Wuc4Uueo6WRd990I8L7S3GT/79GhVZcPr33py5aosRb8fnyDwpcvmBgXrGxvbKIpMS4/30iY2gXhkmSGSQ6mUzXksVRAEMZ3E/RPP84WFFb/55bsXzuc6HC5PWhAYWJCEv7KSWjKD0Mhh7D6qoSIwJCeBjERCdOSiFOKphcyui45D1xydpoGYMZvNceVyQXub0dRreeqZ1QrFXWM5JSNnZiSmz4yHIN8SYSYKjzIzRNz7qfE8n3v99v/54e/y8srcIXcQBKEIFBWAfmct9fQiqV6F3NfLAAACd/8DAISikJKA589AM+Ikm+ZLf7vfcqXM5aJ5kZAsy1VWNvz6P3c6nfSLL2+Sycj+kQMIemBJKI8+M4bA5WKu5OT/4mfv5OWVugOrAIDUMnhpGvHmGtm8BFxK+E4KACAYQCgM4ShEoBCBQRIMIlAIQyEUhmAAQQASBJIXlmfw0Yucnxwy7j3SVd/gZNi74qqt1fD7//2I47gdL20c0+AxBfhmMYNhmMs5eb/+5bs3b95xzyAAQMFa5IWl0ueWSOODMZ+t2ABAEhSSEhBFQFIcInGIxCAEgUZgFwJBMSryn8Nk0XHydz9qu5lvZhheVDtaWjp//78fYxi67fnHx0EOjuP7+iwYilIy6f3rqg+SGTzPu1y0y0mb+qztbcaOdmNPj9npdDkcLpeTBjAgSYIgcIWc8vPXBAbq9HqtTC4lCHx8sXEsy+Xnlf3x97tyc0vctIABFBeMfn+TfNNjpJ/Sx+kchiESg1RSSCWFpDiEoRACj0SIIdCosSc26UOCJP/zx4ZLV0wu+q70am83/ukPuyQk8fTTqymZV+U3BUFwOl2NDW2XL+UXF1eRJLFy1fwFizJGqQ/sDR4AMwRBMPdZ2zu66mqbb1y/XZBf3t5utFntDoeLdjHcXQgAQAgCwwiCYahEgpOkRKWSJ6fEPJaVlpoaGx4RqNWo7vVkjnLRpqb2nX/fdyUnn6EZcSMMQ0mh2H88p1g1S+LbDAIDiMQhnRzSUBCJQwiAfNdKKCmyaIEqwD/uZ7+sPXa6m+4nR0ND286/7QsNDViydI4Xtny6uqrxxPHLR49cqq5qtFrtMAxu5pb86jffm79w5v2YSqeOGYIgsCzX0W7MySk4c/pa7rWShoYWzkfz883cko8+OKzRKLPmp61cNX/J8rkREUEYho75CBwO1/4vTh89cslud4pbYBhKCEZ/sU3xeKYEx3x5gggC6eVQoBKiJF5KiJGAoSA5kfrNv8cwrHDqXDfDCKIoLbld9e4/9oeFB8bFDR/xJcqJoqLKLw+eO3L4Yn19q6cqXVZaW1RU8VjW2E6iUTAVzGBZrs9kqa5uOn4s5/zZ3Oqqxr4+i0+Z454QBKG72/TVkUsXL+RFRYeseXzh+g2L4xMiZTJypBU/z/Hnz+W+v/NgX9/dzEQAoHA/9K0N8pUZvtACgSG5BApSQSopNHG5rzFR5P/9QbjTyV++dndaYRj2/LnchE8jf/CjHfcqHBaL7drVogP7zly+lN/Y2M6yQ+vzifEA96lqTC4zBEHoM1kKCsqPH7188sSV5qYOl8s1bk4MgcViu11cVVPddPrktTVrF2zYvDQxMVIiGTq5CoJQV9f657c/a2pqd6sXKgp+eQW1NYuUkV4/PgKDtBQUoIQoYhxzxyhAEDA7Q/FP3wrt6qFv37GK1nmL2XZw35m5j81Ys3bhkHd88fytX/z8r5UV9QzDDHEAwzDQaFXLls/NzEy5T8vYJDKD5/nKioZ9e0+dOH65tLTWOZybSsztQnCcVKmkarVEqcRIEsFxBMMgCOJZlnU6XTab02Sy9fQ4+/qEwd5wQRBsNkdBfllFed3Nm3eefW7tmrULNBqlpwS2Wu27Pv0q9/ptt7zFUbBhruSlFVKtwuvPSopDgSpIJ4dw9D5nkGFB4HD2fNXLzwf95//WG4yMeGv19a0fvHdw9uxk/wCte09BgE6euFJZUUfTg0QFAEDnp54/P33x0jnZi2fHxoYNdx0fMFnMcLnoq1cK3/79rhvXi++dOwAACEGQKpU6LMwvPl4THi5RKnGKwkgSwTAYRWEEgSCIFyPsXC7GbqetVktnp7G62lhRYTUYXDab4OH6studF87frK5qrK5sfOW1LWHhA+ELxUWVn3923K1eAAClR2E/2iIP0nhnywIQROJQhA5SURA6ifZphRx9eqt/4W3Lp3s6WFYQ55QL524ePnjuxVc2ebpkOY4XhIGhoygaGKRbsCBj/cbFszKTAwJ1EgK/fzf9pDDDarEf2H/mx//6h+4u0xBxBwAg5HJ1RERYZmbkwoUy/VA34+hIXr0GZeiekpKKc+drbxf3dXe7+cEybEN96x9+93FHR9e//ce3xNL6drtzz+4TLc0d7jMopOCtDbKUcO9C8gGApDgU6w/JJRM7gwx7Kb0f/qO3wq/f7KustovPzWq1/+nt3StXZ0VGhbh327R56aULt+rqWmAYBAT6LVk6Z8fLGx97LG1iM2MnmBmCIHR0dH/w3oG//nlPl9Hk+ROMolKtNmjGjMgFC/zi4kiVyvvTAgBwBFGTpB8lUxASIj5xxdrHa4qLrx8/Vnz5cq/BwPVrYU4nvXvXMYOh5z9//VZcfHjOpbyci3nu3HYMAU/Ml66c6V2cHAAQRUARWkhOTsYMMiySEqh/ejP0x7+oNZvv3lFjQ+vhg+e/+71tbivOosWz/rrzZ7k3bsso6WNZaUnJ0SMFNt8PJpIZYnGSd3ce+OiDw56pmwCGSZUqMC0tauFCfUICqVAAr4N1AQASBFWREj9KrpRIsP70LImUSpr7WGhsXMq8+Ze/PFyWe8PpcED94X2nT15FUeSNbz119syN5uaO/kJpUEwQunU+qZZ5MSkACJLiUIgaUlJTRgsRj6/SnTrbffRktzgFMwx76tTVVWvmu5OjpFJyUfbsuY+lwjB8r8Y9UZhIZvT2mD/5+KuPPjjc0d41YGREEF1MTMyyZRHz5knVau85AUEQAoBSQgbI5RpSiqNDveAwDCt1uswVK0JiYy4fPnz1qyPdHXdnDYZhz5y+bjT0dHWZ3AFaJA6yU4i0SMyr9SaOQgFKSENByFR7OQP98fWr/XLzzJ0GWvzeKsrqbuaWxMaGYf0xHAgCS6WT26BowlQqQRCOfnXp/XcPeNICJYjQzMzMF1+MX7GC0ul8ogUKw4EKRYxW6y+TE/fQYmA3DAuJid34+hsb33gzMCLCrbXYbY7c3JLamiYxRgtAkL8KWTwD1yu9uGUYQFo55CefQKOF98AweN5cRXqqDO0nZU+vOT+/zGSa9DJRnpgwZpSV1vzXr95tbupw0wJB0bA5c2bv2BE4YwbqY6khDEHCVOoojVZOSMZ0ZgAAKKUye/OW9a+9rgsOcZODYzm3jRWGofhQdHYMjnojAygJFKyCvEtBmHAAAIWFklmPqUjp3bfjcrpuF1U2NrUPiUScVEwMM5qb2n/0/d/V1bUOnBdBgjMyMp57ThMRAXw0uRAoGqnWhKvUGOzDJ0tIpfPWrF2740WNf8Awv2IgKwEP0aEQBAkQJAjD/LsLHIXCNdADbfUio5A5sxRBAYRIckGA6mpbyu7UTGqZqCGYgM/CZnMcPHDuZm6Jm9EwigbNmJH54ouqMJ/tLSSGhSpVgXLFOMKYSJls/vr1fd1dJz/9xGkbVCpPQcLzEnAXI/TZhF4b32vlbU7BxQgcDyEwROJAScE6BaySI9IgOTrlWucQAAAlJVBJ8VRNnYPjBAiCurpNlZX1Tic92SnwbtwvMwRBqKyo//LweZvtbsIMAEATEZH29NPqcK/y/z2BIUiAXOEvk6PjtezK1eqlTz7V0dh468xpzsOhoJTBdR3s9XK6spXtMPE9Ft7q4J2MwPEQCkMkAVQUHKhGEqOJrJXyNIkrMGAU3WYq4KfFkxKoU+e67Q5BnBnLS+v6TBZ3OOBk436ZQbuYnIv5pSU1bisnIZfHLlumj4/3dRKBAdCQZKBMjvuegOoGAMAvOHjjG2+0VFe31ta4lZ4WI/vvn1usDt7qFEaarAGAzhS7Pr/snJFi3LxOv36tTqPxyQk7kcAwMCNVLpUidsfd4VZVNZpMltCwYebKycD96hlNze3nz+WazW4fJvBPSgqbMwclfF5nS1A0RKmSeFHuYnQAGI5ITFr74oukbMBLaXMJbd2c2T4iLcTp3ObgG5qcR092/Z+fV//LT2uKbltZdmL8f74CQUBCrFQpH3gaPd2mTkP3lA3gvpjBslz+rbJ8j4BKUq0Oz8qS6X1u+goDEKRQKAjJhOTlAQBmZi9OmTcPHpf44XnI2MXs2tv+gx9XnTnf43JN3YrADQAghQINDh74wGiabaxvm7IB3NcHarXar18rGgh6gGFdTExgcvI43oecIPSUfAKD5+VqdeaKFfWld4ytg1ZMCIJIKIqSKyQyCsNxAMM8yzkddqvJZDObWYZxSxWGES5fM5lM7I9/FPH4Ki0lnWrbBiVFwkJICDL1j4dtaGgd66AJw30xw2DoLi6qdKd2oQThn5Qk1Wp9dT4hAPaXySXYRGrdCIYlzM5MW5Sde+KE3WrBJRKFRhMUGRUaF+sfFq7R+8vUaoIkYQRhGcZm7utua2+sKK8oyG+tqXHa7dDdIgvC7VLrz39ZyzD81g16iWQ0EcvxgsvFu1y8ixZYhhdXwgCGMAzGMSAlEYLwjfkSCRwY6Oli5YyGniH78LxgMpktZtuwpg4YhhVKmVIpG0esxn0xo6qysbFxIByGVKl0sbEo7rMlQIpjflJqYnU9AIA2IGDtjhcDwsM7m5p0gYFRKan+YWEylYogJQDAgxRkQeB5ftbSpR1NjbfOnLn85eGejrsmO54Xqmsdf3ynWavBli/WDLtgMZnYmnp7TZ2jvsHR1kEbjXSviWFZiON4DIc1KszPD4sII2OiyNhoaXQkOTrD3MAxoFQMvCCe54dUKeV5oaa68S9vf15cXOHsL1npCQmBz5mb+vobT8SMEDU4Cu6LGdVVjZ6NgGR+furQ0HF4q0W3yP2MZFjACBIYGbkmLIznOADDCDpyuCgACAxTSmVUSmpITGzczIx9b/+hobz8LjkEofiO5S87W4KDiOQEmcgoQYAYhq9rcHx1ouvi5d7aBkdnJ+1w8BwvDGmKIzoBUQRQFBISRCQnyrZs8FuarVEqxlibIwiQSj3z6gSb1em5g8lk/s2v3tu399S9wV39twUVF1cBGP7JT1/zNU1h/O/D6XTV1TXTLsa9hfLzI9U+5/BjMKwiyUlKzwMAICiKeE07AABBkumLFmEEse/tP9aW3BaNIgwjXLjU895H5E9+FKHVYL0mtui25chx46nzPa1tLoeDG6XsimiqYlnB6eK7e5g75baTZ7tnpsm3Pem/dJEmOIjARlgaIwgkwQeUG0EQnM5BzOjrs549fZ2mmeGOFg+BHHZnQX6ZxWydOmbY7c6mxk7P2Dt1ePg4dE+KIEj0ISvGjiCJmbPXv/bawXf+0lhRwXMcBEF2B3/oqDE6UhoSTJw61336fHdT83hiWjlO6Ollzl/qKSy2LF6ofmqLPnu+2l+P3/tpCALEDT4/MtjDJ5EQMXFhBkPPKPWAUBQJDtYTvhsR7kdm0B0e/eYBAOOYSgAEURiO3Ydpa5KAYnjKvKzezs4jO//R1X6340lbu+u3f2pEEKi13SVmAAwBjCAohiEoCsMIgIH4oXMsy7EsxzCeSqIgQD29zJfHjHmF5i3r/Z5/JjAlkSKIQbMLx0FOx4CjBIbBkAgdrVb5gx/tQGC4urqJGU5y4Diemhb7/Avr1b7Xhxw/M1wuurvbI2oLAKlGM9oBwwEGgEDR+0suniyQUumclSs7mhrP7N7NuFzi597S5oQEaAgpAACkTKbW6/1CQkNiYnRBgUqtjiBJAAGn09HT0WlsaW6pqTE0N/UajeKpRHCc0NzifP+TtvIK+3ffDFmWrSbJgY+EZniT2ZMZsIwaVBkGx7GVq7JiYsKMxl7PfBM3UAQJCNSFhQdivvuNx88MlmU9SxFCEEQofCYmAsMEMnYe0YMBAEqd38pnn6sqKKgtKRHtHPeGtSq02rQFC1OysiKSkjT+/jghgREEhu+ufQRBEOOcHTZbZ2NjRX7ezVMn60tL3fJDECCLlTt3qafd4LL+MGLzej8CdzvfBTF4RwSCIPeWYiIIPDEpKnES7n78zOA43uWxUgIwjJE+RxnBAKBTWUjGRwAA/MPDn/rn7+/8yU+62ts8t2MSidbfPz178fx16wKjoqQy+bD8Fut2oBhGkKRKp4uZMWPemrVFl3Mu7NvXVldLO52iisBywp0y68//sw4SoE3r/MRlrd3BtbUPCBgUQ0Imv6TfwOXGf6ggDMo9FARfXWj9D248SaFTBgBA8py5S5966tiHH9rMfWJEkj40NG3BgsfWrI1ISpaQpPfjRzBMHxq69IknY2ak5Rw+lH/uXFd7myiNeB6qqbP/9Je1giBsfNxPKkVMfUx9o8N9LIahYVPlTrsvZgypYiMIAn9PGt2YgAG4q6o9xEAwbP6GDTazuTT3Bs9x4fEJmStXxs+ardBoxjcPojgemZys9teHxMSc3fN5c2WlqCUIAlRb7/jN7xukUmTFUk1Dk7O7Z0CvVCnlISH+E3pnow5y3EfCMIwTmMMxsMLmmBEX1qPgIZYXA/ALCl738itzVq7keV4fHKLS6723kQwLAIBK57dgw0Z9SOihv71TVVjojiapqLS/826LSoUVlVjt9gG9MiIqRDuFDV3Hf3soisooss9kcW+hrVbIdy/r1wIwgqj1epWfn6hRTcg5AQASqTRl3jyJVPr5735bVZAvSg6GFa7d6PvLP5qNXbTDOTBfx8WFT2V/xvHfJIohCpVHTzlBsHZ3D9XdvcCDCX8YB0SdaKIL7MEIEpOWtuXb3wmLT3DbCW127sjxrus3+0T7qViFPiExkprkTIJBAxv3kRIJrvcbZMCwd3X5ehJBgATedzY9WoARJH7WrNUv7NAFB7sVF5rmaXrgwURFh6SkxnrZ4mlCMP4rSSREQOBATzlBEMwdHQLkW2itAAmcwEOC8PVQNyYNuEQyc3F2a13t6c92DYltFo3iAYE6SIDKSmt5noMggGGoVCpRqRVKpWySrEH3xYyQ0AAAgNtob2lDQJq+AAAgAElEQVRv51wun1JLeF5geN5XPj2SkKvUCzduqi4qqrh1c6gfRBCqKhv/578/YBmW4zgIABxDZXJKp1MFB/snJUelpMYGBvlJpZIJrCY7fmZgGBocpCdJwl2AwNbdbe/pUQQFeX8SXuC5KcyueZgBYDgoKmrx1q1NFeU2s9nzJ47jG+pbGxvbIEHo/4oAABAMwyiKKhTSgEC/BQsz1q3PTs9I0GgmZv0yHmbwPO90uG7eLLmcU+Bp7HKaTNauLp+YwQkCIxZL+WbPJiIQBHlszZobx48XX84ZEqPF8zw0zBfE0TRjtzs6OrqLCis+/+zYshXztu9YP3/BTIoi73OW8Y0ZHMf39PTl55Xu2X3i8qX89vYuzyJRLqvV0etFR3UP8ILgYllOEB46Z+sDAiEhF2zaVJGf57D6nMXa3d13YN/pa1eLNmxcvO35x5NTYqRSctz08IEZNM3cLq46sO/MV0cuNtS33hswAmMYguO+qpMOlmE47n5yTB4xxM5Ii0hMqsi75VHLFmAEIZFKcUICEBgSBI7laKfTabexg62LHMe3NHd89OGXJberX3hxw+Prs3U6H+qUeMJbZjgczsMHz3/0weG8W6VDXKzi2GEYDpk1Sxcd7eu8YGcYmmMp6EHmkT5UUPn5Ldiwoaezo6utDcWwgIiIiIRE/7AwhVZLyRUIhkKCQLtoW19fj6Gztba2vrTUZDRwHOc2JtltjmtXi1pbOutqm9/8ztPj64oyNjMEQejp7ntv54H33j3Q0tw5JA4AwTCpWq2NiQmdNSto5kxKN3ZvdDcABGEoSuEE4ktm88MJjmU5juU5nud50aMkRhmOY7LHCOKx1Wv0oWGdTY1ytVofEqrW60mKglHUvfQQBEHgeZZhrH0mQ0tLydWrBRcutDfUu4M/OI6rr2/921+/MBh6//XHL4dHBE1whLAgCAZDz9t/+HTn3/eb+wbNfAAAmb9/2Jw5MUuX6qKjYR/9CASKaUjSXyZXSSTI1HbumBAIgsAxTF93d6/B0Gs09nS0m3t7nFar0+5AEESqkMuUao2/v9JPp9brtQGBOEEA4JVXWSz6kJqVlZqVNfqeGEGQMplfcEhi5pz56zec2/P5tePHzD09ovAQBMHUa/704yOQIPzk56+HhPj7RI4xXqfR2PuPv37xyYdHLOYBWsAIIlEqI7KyYpct00RG+pSoCANAIKiOovxlMhkheTijuUYBz3Euh6O3s7Ou9E5pbm5zZUWv0Wg1mdyRFp5AcVwqk8k1Gv/QsOgZMxJnZwZGRsiUKhSfgNp7noBhODQ29ukf/DAlK+v4hx/W3C6mXS6RHzTN7N93WqmSf+/7zwcE6ry/7mjMsFhsuz756oP3DxmNve67RiUSfUJC/KpVIRkZErncJ60ChWE1KQ2Uy1USEkWmvMzR/UEQBLvF0lRRXnzlyp1rVzubmx02G8swo7iKWJo29/SYe3ra6+rKcm/kHDoYmZScNHdu0tzH/IKDCckE1wskKWpm9mKtf8Dp3Z/lnTtnMfWKYzObbfu+OBUaFvDCixvkcm9T6UdkBk0zx77K+etf9rgbn0IQhEkk4Y89lrhunV9sLHJPxpHA8xxNwyg67MyCIUiQXBEgV0gx7AG0+Lk/8DzfXl934+TJwgvnm6qqGJfLp/atPM877XZnU5OxpaU090b0jAszFy/JWLxEFxg4sS46BEUjkpI2vP6GRCa7fPiw1dQrcrqt1fDBuwejY0JXrMzyspXwiMwoKa767f986C6MJ9ZLiVq0aMYTTyiCgjyzBwSeZ+x2Y3V1W1GR1WBQBAXFLF2qCBqk8khQNFyt1lNy7OsmKsQZpCIv79iHH1Tm59kslmHT6UWtE4Zh0V0gCALP8/dmFPI8b+ntvX3lSmNZeU1R0fJnt8XMmCGGeggeXAOijXNcADDsHxa2evt2lqYvHz7ktNvF1WxZWd0ffvdJUnJ0mHchg8Mzw2Kx/flPu0tuVw8sqWE4NDMz47nnZH5+njKQdTo7y8vLjx1rKy5mHA6e41CCsPf0zHnlFUJ210cvQdFItTZQPnyk5EMOlmHuXL/2ya9/1d7QcC8nEARRqVRqtVqr1er1erlcTpIkx3EWi6Wrq6urq8tkMvX09DgHayE8x/UaDVePftVUWfHk938QnTmHARDNshzP8xAEA4DBCIEiOIKgCIrDsK8aOgzD+pDQja+/3t3RXnjxojhsjuNyLuZ/+N6hn/zsdW8axAyzB8Ow+/aeOnP6mict/JOS5rz4omf5A4Hn+9raas6dqzl/3mocmHFYl8tYVWUzGkVmEAgaqlT7fz1p4bTZ8s6f2/O733a3t3u+WgRBNBpNXFxcampqUlJSaGioVqtFB8+hgiDYbLa2trb6+vry8vLS0tLm5mabzeZe9vMc11hR8e6//Tz92WcjFi7EB8dXAwhCYUSCoRSGKySEnJBIMdxdDnVMAAB0QcFbvv2dXoOhobRUuJvAze365OjCRbMWL80c0/c2lBmCINRUNx3cf7anx+y+hjI4OP3JJ5Whoe7deI4zVlWVHDzYkp/POByeZwAAoAQhqhoYjATKFQFy+dduDQJBEO10FuVcOrLzH560gGFYqVSmp6dnZ2enpqbqdDpshBR+AIBMJouLi4uNjV2wYEFHR0dBQcG1a9fKy8stFov7hObOzsI9ewRBiFq4EJMOpJMIEMTwHOPiLC6X0W4jUFRJEBoppZKQOIJ4qahFJiWve/mVz/77v3o6O8UtbW2GPZ+fSJkRq9ePkRw0lBlOJ331SuGdOzVcfxk5XCaLXrxYn5TkZivPcR2lpQW7dnVWVPCDrbMwisr0+vB58yidDgCgJskA+X1VV3pQ4Hm+vvTOmd2ftdXWDtSxRJCIiIh169YtWrRoFE4MAQCAoqioqKiQkJDMzMwrV66cPHmysbGxPypYsHR2ln71FS6Thc2Zgwx3To7n7TTtZJgeh0NJSALkcpWE9CaxD0HR1Kz5s5ctv3jwAO10ihPCjevFxYUVS5bNHf3Yoczo6uq9fCnfXacBwLAmMjJ09mycurvaEXi+p66ueO/ejtLSIfOuKiQkbN68wJQUfXw8JpFgMBykUEh9L5rwMKCvq+vigQM1t2+7XYYAgMTExO3bt8+ePZv0PbMGAEAQREREhF6vj4mJ2b17d1FRkXhyged7GxoqT5xQhYSow8NHOoPofTSyVivt0svkQQqFN/nAcpXqsTVrK/LymqurRIo3NbafPnVtVmby6AcOYgYvCI0NbYUF5QPFUiSSoLQ0dViYW2C4LJaa8+c7ysoGaAEATlHR2dnJ69bJAwNRHBdV1EC5XC3xvrHMlILneYfV2t3R0VxV2VZXa+npFSBIqpDrAoNCYmJ1QUGFFy/mnz/n6p8oYRiOi4t76aWXZs+e7aWoGAlSqTQzM1Mul+/cubOgoECUHDzHdZaX11++LPP3x0YNfRIgyM4wLX0mhmPDVWoSG+PDAzAcFh+fkpXV0dhAu1xiqvrN3DtNje2jL7wHMYNjudvFVQ2NA8lYlFYbkpHhtnLyHNdRVtaYm8s63e1CgCwgIGXDhvhVqzxz1CgcD1GoprhhtTfgWLbXYKjMz88/d7bs1k1Lb+8gyQcADMNqf3/WRZt7BgrcBAQEPPXUU7NmzbpPWohAECQ+Pn7btm0Wi6WyslJ8Q7TdXnf1aujcuX6xsWOegeX5douFF6AojUYyluSQKhQp87IKLpzvaGwUt9TVNZeX1bLDpcK6MYgZTid96WKe270OYNgvLk7lkeHu6OmpuXDBajAMXFWnS16/Pnb5ck9awAAEyBTEJBRLuS8IgsNmq8jPu3TgQOmNG5Y+07DmS57jjC0tnltwHF+1atX8+fPxiZsZURRNS0t7/PHHOzs7e/uDWsytrc23bmnCw++1Ig4zTkEwWC0IDCLVGhwZ7VHDMBwaFxccE2NoaRErPphMlrxbZZFRwaMd5flHb09fYX45zw2UAg6ZNcszrtNYXd1x5w7fzzVUIolcsCA6O5ugBtlcSQxTk/cbUzThsJrN108c/+KPf8w7d9ZtOfYGaWlpa9eulcsnONdDIpEsWbJk5syZbsnKMUx9To6t29vSjpwgdFgsHVYrJ4wRMSlXq2NmpOH9r5Kh2aKiit5e8yiHDOLanZKanp6BwgcShUIbE+M2d/I83377tssjRFEVGhqTnU2q1Z62LwCADCekE1qObViwDGPp6bGYTA6bjedYDMNImVyu0ciUynsLvDAuV+7Jk8c+fL+jsZEfVYoOgUajeeqppwICxp9QCsNiSUEYgLvWCNFEyvG8TqfbuHFjQUGByXT3sZtaWoxVVXJ/fy+t5izPt5n7FAShkoymFBMSSURiklQmEwPTeZ5vazG0tRpHOWQQM4oKK9y6JwRBiqAgiceH4jSZuuvq3I8VwHBgauq9JaRhCCiJSXOsCwLLMF3tbcVXrlTm53e3tdksFtrh4AUeRVGCJCml0j80NG5mRuqCBUqtDsUw0Vx9+8qVr97b2dnUNChQCsOCg4OTkpICAwMhCDKZTA0NDbW1tTabjWVZnucJgliyZEl6ejri+8IbQRCJREKSJIHjMAxEw/kAMwSB53mO4xctWpgxc+b5CxfEo3iOa755MyIry/sH6GAYg9Uqw4lRyn4BGNYEBCi0Wrdhw2KxNTWOVl10EDNqaps9q+HL/Pw8Pez27m6rR64RRpIBiYn35hCgCEzhE+8zE3jeau5rLC/PO3u2KOdSr8FAu1zDujAq8vKuHz+h1GlTs+ZnLFkSkZTUazDu/8ufPGmBomhkZOSaNWsWLFig0WhE8yXP8zRNm0ym4uLiwsJCk8kUExOzbt06ivKh1DcMwxiGUVKSoigMw9xsGAkEgS9fsSLn8mX38rinsZG2Wr2veMYLQp/TaaVdo4sNhUat0g0Ed9ntzo720TLHBjGjvc3gGQsuUSphj0nBabF4TiW4VKocbvFNoCg2qkI0DrAMU3en5OapU/nnz3U2NY3e5oPnOKfd5myyGVpaCi9eiMuY5bDZGvsL9Ym0SE9P3759e3p6+pC1hkQiUSgUYWFhq1evdjqdEonE+8WIKIRklJSSyXAM81LNQhAkLjbWz8+vvb/mE22zWTo7faqF52AZi8ulGLUXjISSkbKBbFOaZnpNZnTkVcKgH6wWu+caF5NIPCds1ulkPWrLITguHa5LHoGg2MRNJYIgWE2m/PPnLuzf11BW5hpsiR/jWJ7v7ujIPXkCwPBAhw0YTklJefXVV5OTk0eZIzAM82mBCsMwSZIKhZyU+JwO5OenCwwMcDODdblsPuaBcjxvdbkYniNG/iYxHMc9ZgCWZR12l1zhHTOGdmm/h4BDmq4OG4eB+u4bHAmCIPQaDOe/2Hth//5eQ+cQzREAgOO4TCYjSRKGYZZlHQ6HzWaj6UE1U3mehzxkTHBw8PPPPz86LXwFAEBGUUqlEse9FRWeUCgUatWAhOAZxuVjSgEvCHaWYbjRmAHD8BDF3AdLF0WRdrvDvT9P0xDPQ/2ngzEMwTC3eUTgOMbhuLcCEwrDE6VkWE29Z3Z/dnbP5xbTUNuDQqHIyspKTU0NCgpSKpUYhrlcLpPJ1N7eXlZWlpub29vbe++dKxSKrVu3zpw5cwJpAUGQjKLUarU3ru1hQZKk1KM0G8cwzD2prWOC4Tia40bJAxXLhbn/hGEEH7W/66CbUWsU3d0mnr/77l12O8+y7oeIUxROUe4JhXE6zR0dw9Tz8y4OdkzYLZbz+/ad+2KvxSO7CUVRnU63YMGC1atXh4SEyGRDK2rzPL9y5crOzs6cnJycnJyWlhaHwyFSBMfxuXPnzp8/X+JjU7fRQVFSrVYzyoQ9JsQkRM8t4+iXxnA8M+pq3OV0Oj3mYhRFKErirsJwLwYNKDIypL6u1b08sXd1sTSN9E9OUrWa0mjs/XYY2mbrqqryj48f2lFxIooesDSdf/7c6c92eZqoSZKcMWPG+vXr58yZQ1HUsHIbhmG5XC6Xy8PCwubPn3/hwoXr16+3t7cDAOLi4tauXevv71sI9eiQEIRapbofWog84DwbpI0wTY8Ojuc4frSqAnaz2dbX5/5TIsG1OrWhc2iJezcGjSApOfpyTp67XqW5vZ2224l+k4ZUo1GGhHTV1t6NEaLp9tu3I+bPl/kNSnThBeH+81QbystPfPxxT2enm2ckSWZnZz/xxBOxsbHe6IY4jsfFxQUGBmZkZJSXlwMAUlNTExMT7/MtegJFUblcPo7yvENA07SLHqjhJ+aq+HoSYawaNebeHnP3gGJLSiWBgX7eMmPmrERSKrFa78oca1eXtbNT5ucn2uNQHPdPTm68ccMdqmOorGwtKIhZssTTzs/yPCfwqC81W3iO4zlO9GbBCOKw2U7t+rSxotxtrkBRdOHChS+88EJoaKj3KgIAQKFQzJo1KyUlRVRXfVIvPEM7YRjmed4d3SkIAgCAJEmKkt6/BLLZbGbzQFErGEUxXywoAxil9jnLGpqb3QIYAEilkoeFBRYXVY50yCBmhIUGxMSEdRlNd4PDXK62oiJ9YuLdtQYAgampyuDg7v5gFkdvb8XJk8qQEP/ERLc1l+E4juOhsV6BIAh9XV2dTU09nR3mnh6X3S5W4lVotW31dcU5lzzVpRkzZrz66qvBHiVpvAeCIFKp1IsdBwFFEKlUSpIkQYh8AhAkcBzPMDRNM06Xi+d5mYyaEE3WbLG4reMQBCEEMY7C/gAaTb1zORz1d+44+hVbGEYiIoL0/qOFdQ1ihoTEsxbMzLtVKtrIeY5rLSpKWL2a6g//lPv7Ry9ZYm5vp2028e121dQUf/HFrBde0EZGiuRwcSwzsgLFc5zTbm+uqrx+4kR1UVFvZ6fF1MvQNHS3dTvASRISBJeHlz8kJGTctBgHAACkRKJWqwiCGKLeIgiC4xhFQaJhG0WRCRlST3ePwcN9jWIYqVD4mjgOwwCBR1iZCILJaKgpue3ObcQJbEZ6/Oi5J4OYgWFYVlb6Z58eddtNLR0dbSUl0dnZok6EEkRIRkZbUVFrYaFY/ZNn2baiIp7nM3fs0EZHAwBojnOyrGK4QVp6e6qLi3NPnSy9ft3U1XVvGo8gCC77oOYuFEWtXLkyLi5uamiBIIhcLlcpFQgy2lsXZ5kJuSLP883NTb0e6y/G6TRUVuIURWm1sNfWNgQABAxPDZZhqouK2usb3Mt4rVaVkZHYZx7NajLo9mAYjokNS06OcRd8dlmtLfn5nn5hZVBQ3PLlcg/fI0vTrQUFtw8c4GhabBplcTn5e155a23t8Y8/3v2//3Plyy+72trYfjkxCgAAoaGhmZmZ44iuG3Ieb4gFw7BcJlMpFei4MpXHB4ZhamvrPJep9t7ewt278z75pDE313uTFwrDKDx8Lk+v0VB8+bKl966SAcNwQmJkQlLU6AbJQTIDACgw0C9rflrerTti3zyOZTvLyztLS6VqtahmIjgekpHhMJkK9+xx9BugBJ7vKCnhWRYiCF7gzS4Xw3FuBZtlmOqiwqPvv1+ed8vhETbtcV0Aw7Co33lux3E8OTk5zCPW0BuIPBAlP4ZhSH+kNcvxHMvSDM0wrKhFDjlKKpUqFPIJXLx4OVqcwD3LnUGCYOvurr9ypaumJrKuLnHNGqlu7HxUHEGGjcRmGebO9esVeXluj51CQS1aNCsk2D8flI5ywqFPQa6gFmbPPnzowp2SakEQIEGwGo01ly75JSQo+8ss4TJZ/MqVAIaLvvjC3tUlKur6xMSBcpa0y+JySlCZKC0r8vL2/P639aWl3ODy02KEvk6nUyqVCoWC5/m+vj6z2dzV1WWxWCAIioiIyMrK8ilkBkEQHMPkcplEIkEQBIBB9liRfAxz147OMIxbtuE4rlIqJiSYzydgGLZo4cITJ07W1Q2SHBzD9LW03Dl8uK+pKWP7dtWonwcAAEfRYbzwgtDZ2Jhz+JDJaHBrclHRoctWPEbJxtDKhzIDhuFZs5IWL8msqW4SK0cLHNdaUFB+/Pjs5593+9xRiSRhzRqpWl165Ii5vd0vLm7W9u1umxjNcUabTSOVAl6oKizc9/Yf60pKPG8bQRC9Xr9o0aLMzMzY2FiNRiMq+SzLdnV11dXVVVdX8zw/a9aspKQkL/V/AABB4Aq5nKJGXDLc7RyAoiQpkcvldofdYra4aBoAoFTICbGQwdQCADBv3rz/+s2vjxz56srVq60tLTTDCP1lDhiHo/76dY7jZr/wgjoiYqThAQjiBYHmOGxwKorVYj7xycdV+fnuhy+R4CtXZyWnRI/ZIWIYySlXUDte2nDr5p3cG7fvtphj2arTp2VabdzKle70AhhBwubO1cXHsw4HIZNJlErPcRttVj1F2Vtaj3/0Yd2dEk9Xp1arnTdv3vr16yMjI4esJ1EUDQgICAgIyMzMFP/08lXBMCyTUUqFAve6AAGGoQpUTkokVquNF/iRjKpTABzHFyxYkJaW1tTUdOrUqRMnT9XW1rqN+gLPtxYVETJZ2lNPKYODh4314gWh22630bSKJPVSmYzAURixm/vO7t597ehX7qw4AMDMjMRnn1sr9aIW8fBzanJKzKtvbK2rbTb0J564LJbbhw7BGBa9eLE7YRVGUdkIRXZYnq9ua606fPDOjetMv/MTQZDw8PD169cvW7ZMq9WO8iZ8kuooiiqVCrlM5quKIJq/1GqM5/mJ9bH5CnFiTUlJERPa9u8/cOr0KYPhbk4o63Q23rwp1WpTN2+WKIcv6sjxvI2mHQzTY7drSamUZopPnTyz53O7hw4bHKz/7lvb4uIivBnS8I8SQZB167PLS2v/9tcv7La7Fk+b0Vhy8CDrdMYsXSodHPs5LMpv3Lh1/LjdPJAFGRIS8swzz2RnZ09gtC2KoiqVUiGXj3sZKaqrEzWe+wEAQCKRzJkzJygoKCg4aNeuz1pbW0VyuMzmukuXtFFRUYsWjXIGXhAcDFNrbGw8f770+Imejg73TyqV/JXXtqxaM9/LKgkj7qRWK77zT9vWrVtEEAOWb0tHR8nhwyUHD5rb2kb37jt6e4sPHDD1Rx2KGThbt25dsmTJBNIChmGFQi6/D1o8hIBhODQ09IXt259/bpvKIzbKYjBUnDxp7xnR03E3Db21teDzz2/t39/d1up+RxRFbty0dPsOHyqrjBxTCkBIqP/P/v1bi7Jn4fhd2S4Igr27+87hw9f+/ve2oiK2v+TPEPA8X33hQndNjdvxgSDI2rVrH3/8cZ9iKkcHAICipHK5/OtY5mt0AAB0Ot2OHTvWrVvnlmcCzxsqKhpv3BCG9bYLAuNwNOfnX3777dKjR+0e4Sk4ji1cNOt7P3g+1JeWSmNMzNHRoT/52eswDOdcync3ueE5rjkvr7uhIWLu3KhFi1ShoThFwSjqVo5snZ1Nublsv3oBw3BycvLTTz89sYEROI4r5ArsYct3mjhoNJpXXnm5qKiotL8jH+Nw1Jw7Fzp7trtchcDzPMu6rNbexsa6S5eabt0aIlRIkliUPfsnP3stITFqIiu4oSgyOzPlxz99Ta6gTp24YrEMmK7tXV2VZ860FhXpExP1CQnaqCiZTodKJABBDFVVvf2JchAEyeXyVatWBQQETKDyDwCgpFLPme7RAwAgPi7ulZdf+sUv/t3UH1phrKkxVlXhMpkYU2czGrvr6jorKgwVFTajcUhbKqVStmrNgre+99zMjEQU9U2XGvuDIwjssXkzNBplRGTwns+Ot7Ya3GKKo+m+1lZzR0fzrVsyPz+Zn59MrydkMmNNDe0RrxYdHZ2ZOXYpj2EhpvHA7g6XPM9xnCAIKIpSMupRUi+GBYIgK1eu3H/gwJUrV8UtHE1XnjrV09DgslisBoPVaLQZDC6bbUiCBQyD0NDAp55Z9eLLm6JjQsfxoLwSxTAMxydE/PBfdqSmxv79r3uLCiucTteAMZfjnH19zr6+7ro6GEVhBOFZ1t1tD4bhtLQ0nS8VZO82acNxKUniOIYgYuNOIGZ2sSzrdLlQFMWn3F75QKBSqRYvXnL9+g23WaKtuLijtJTnOJ5lh824IUliZkbi628+uXJVllanGmcbQC/3AwBotaqnnlk9e07K+zsP7N93qqXZMMTNIdb2G6IdaTSa+Ph473OFYRiWELhCqZSS5EieMHm/odfLc35dIEpEt4wUgSBIQny8Xq93px1wDDNSM0MYhgOD/LZsXf7am0/ExoZ7uUAdFr6pbwgCx8aG/ewXb65es+DoVxcvXchrbu6wWGwsy420iA0ODvZSwxAzeRRymWwsm9UjyYn6+oYTJ0/U1tZFRUY+vu7xiPBwNz8CAwPDwsLczBgCAACCIjKZNDTUP3vx7HXrF8/LSiOl96vsj0expyhy8dLMjNmJNc833bhefOtmaU11U0tzh9XmYGiGphnPFEiNRqNSjS3QxOA5pVIxjkyeRwBd3d0ffvTRF1980dfXJ5fLOw2Gf/7eW+IUDABQKpVa7aD4KxQVPcmolCKDgvSxsWGzMpOzstJi4yMmqn/W+Jd8CoUsfWZiUnLMlidWtLUaW1s76uvaWlo6r10pyM8rd0+KJEmOuVgFAEilpFqtJia67PLXBa0tLZcvX+7r6xMEwWKx3Lp1s6293a2cEQTu+QxRDE1Li8+anx4c4h8VFRwc4h8c4q9WKwgCeyi6ZYkKsESCBwToAgJ0MzMSXE7a6aT//re9pXdqbTYf0gxJUqJRq+8/CPtrCp7nOw1Gz9QpjuM9VcshkSskSWzYuPjNbz9NSHCSnCz/8IRRDAAgIQmVWq7VqjB8YNVgt9sdoyaj4jiuVqm+sbQQY8fzbt0yeziYVEqlpxfa4XDYbQOWJBzDdH5qtUYhlUomT8ROvAFRo1HKKNLUX8+lq6urt7dXr9cPew8IgijkcgkxkbbRyYMgCDRNu0YoOi4WzBhWd6Zp2jlcTQeeF6xWy+kzZw4dPmzvD4BFECQ6JkN1jVEAAAdlSURBVMbPbeUUhJ6eQSHEpJTQjrfTkfeYeGYEBOpUaoXbINbW1tbW1hYbG3uvPxMAIJEQUikJxooieRggCEJLS8ulnJzqqmp2cHAaBEEQADKKSk9Pmz9/vkKh8Dyqu7v7/IULFRUVLqdryEEMwzQ2NZWUlHR5JL9rtdqsrCxFv99REISWltYWj9JhcjkVHDzpXdYnnhmhoQGBQX5lpXdzUkwmU0VFxbx58+6N8oVhmJJSUx9gNz50d3d/uuuzL774oneELoIwDAcHB//whz/YvGmTe6Pd7vj4k08/+eQTUbsccgjP8wzDeOoQGIYtX758wfwsty7JsmxBYUGvR0KKf4DOy6ry94OJXx+qNYqUlGh3YjjP84WFhZ7C0A0Mw8iHr9DbSGhqajp37mxHR4djBNhsttra2uPHj3seZTab9+7d297eLupbQ+ByuTxpgaJodnb2m2+8rvHII29vb8/JyfFsUpY5J0WlnuBycvdi4pkhlZJZC2bKPAJQ6+vrc3KGNiAVIzZ8dfM8QAj99bXG2O2e373shCKVSteuWf1v//bzmJgY99fCcdzHH39SW1vn3o0kJavXzJ8ChX3iZxMEgdPS4tMzEs6fzb2b5OhwnDx5MiMjIzEx0S0kYRimpF8bgQFBUGRExOrVa3p7e3t7TcO+bBiGw8LCtmze5LlRpVK+9NKLO/+x0zTcbCJGLFMUFRkZsWLFis2bNnmm4rEsm5Nz+eChQ67+3DIYBitXZSUkRI0Z33v/mJTghpDQgCefWnnzRonYv1MQhIaGho8//viNN96IjIwUyYFh2BRndtwnNBrNC9ufDw8LrauvH6ZuJAASiSQ9PT1r3jzPzSRJPrftOX9//5qaGvYeZweCoJRMFhwclJyUHBkZ4eld4jjuTmnpznd3tnt0StDrtdtfXK/RTkx/79ExKe8GRZENm5aePnntqyMXxRRZQRByc3Plcvmzzz4bGRkppgl9jQSGiICAgC1btoy8akUJgrjXiaVUKjZu2DBEpRABYFh0Gg+xXbIsW1Ze/u677964keu+lkRCrH58QfbizPvxk3mPyfpqtVrVD/5lR3V1452SGvHeGIbJyclhGObpp5+Oj49HkanLEJxA+FrZTQSKot4LSIZh8vML/rFzZ05OjttICABISY156ZXNCsWEhUuOjsliHwBQWnr8t779tL+/1r3RZrNdvHjxd7/73YkTJxiW+ToyY7Jht9s//XTXj3/y41OnTnk2yAkJ8X/9W0+mpydM2UObxJmeIPANm5Y0NrW//+7B7q67WhvLspWVle+8805u7o1nnnkmKSlJp9NJSRL2ug/UIwbRJ2K3241GY3Fx8f4DBwsKCjw5AQEowF/78qub163PlpBTF904uTqgn17z2htPcBy/6+OvOjrumvkEQTCbzRcuXMzNvZkQH5+SkhISGqJSqbyvrvrIgBcEhmZMJlNTc9OdkjvVNTV2u32IOhLgr3vp1c0vvrxJq1WBESv3TTwmlxkAgLCwwG9/9xmNRvn+uwcaG9rcoRtiA7r8goKCwkIcx6VS6eglKx5JCIIgljF1r0s9gWFobFz4K69uefKZVQEBvoVL3j+mYt0YHKx/7fWtScnRf39n7/VrRWazzVO3FwTB5XIN+2i+sQAAqFTyhdmzXn1t6/yFg8yGU4apYAYAQKmSr1o9Pyk56uD+s3v3nLxTUsPQw0cyTgPD0NTU2GefX7t5y/LgYD3ygMzEU2drQhA4IiL4n763bf2GxWfPXD+w/0x1ZaPV6nC5aJ7nvbMgP5oAAEIQhCBwmYxMTonZtGXZ4qVzwsMDcfxB+hqn2gqJYVhsXHhYeODWJ1dWVTXcuV1dV9tiNJrsdjvDcBNSZfbrBABwDJHKpH5+6ujo0NQZsdExYSqV/MFyQsSDsU8TBK7Xa/R6zYIFGSzLWSw2u93JMOw3kBkYhlIUKZdLH5J8fDcevOcCRRG1WqFWK7zYdxpTh29c/P40vMQ0M6YxPKaZMY3hMc2MaQyPAWYAADyzDqfxyIPnhVFCPQZ+IAisob51qkY1jQeP3l7zKHkrA8zQaFRHj+Z4Gc46ja87BEGoKK9Ln5k40g4DzFi2Ym5hfnlb22gdoafxyKC8rK6mpnnjxiUj7TDAjGefe1ytVnyx5yQ97et61GG12o98eUGv1yxclDHSPgPMkMul331r2/Fjl8+ducGN2sVvGl9rMAx74fzNa1eLtr+wXkKOmLcyyDq+fOVj9Q2tf/rjLo7nV62eP+4GpNN4aMHz/PFjOf/4277H1y9amD1rlD0Hd8uSEC+9vMnlpP/f/337wvmb331rW0iIv1g9bfLHPI1JhcDzQm1N01/+9Pm1q0Xbd2x46eXN0lErNgFaKBqyiWHY8+dyd+861tTYHhjkFxioIyTEVEYgTmNiIUCC0+FqazN2dfWGhPhv37Ehe/HsMfNGh2GGCKvFXlhYXlXZaDT20C5mei379QWAIEKC6/Wa+ITIjFmJEolXObEjMmMa33BM+02mMTymmTGN4THNjGkMj/8PGrhSApI5iHkAAAAASUVORK5CYII=;" vertex="1" parent="7">
                    <mxGeometry x="545" y="96" width="179" height="174" as="geometry"/>
                </mxCell>
            </root>
        </mxGraphModel>
    </diagram>
</mxfile>